<svg xmlns="http://www.w3.org/2000/svg" width="256" height="256" viewBox="0 0 100 100"><rect width="100" height="100" rx="20" fill="#0ba55d"></rect><path fill="#fff" d="M23.36 47.12L23.36 47.12L22.91 30.11Q22.91 26.06 22.01 23.72Q21.11 21.38 21.11 21.20L21.11 21.20Q21.11 19.22 27.19 18.14Q33.26 17.06 36.45 17.06Q39.65 17.06 39.92 18.59L39.92 18.59Q45.59 43.88 49.46 53.69L49.46 53.69Q49.91 54.77 50.41 54.77Q50.90 54.77 51.26 53.96L51.26 53.96Q57.29 36.95 61.88 20.30L61.88 20.30Q62.24 19.22 63.68 18.63Q65.12 18.05 68.67 17.51Q72.23 16.97 75.74 16.97Q79.25 16.97 79.25 18.41L79.25 18.41Q79.25 18.50 78.98 19.80Q78.71 21.11 78.44 23Q78.17 24.89 77.81 27.59L77.81 27.59Q77 33.80 76.78 41.85Q76.55 49.91 76.55 58.01L76.55 58.01L76.73 67.46Q76.73 73.94 77.59 76.69Q78.44 79.43 78.44 79.83Q78.44 80.24 77.81 80.78L77.81 80.78Q75.02 83.03 69.35 83.03L69.35 83.03Q65.75 83.03 65.30 80.60L65.30 80.60Q65.03 79.34 65.03 76.59Q65.03 73.85 65.57 59.72Q66.11 45.59 66.11 39.15Q66.11 32.72 65.39 32.72L65.39 32.72Q65.30 32.72 65.30 32.77Q65.30 32.81 65.03 32.90Q64.76 32.99 63.63 35.69Q62.51 38.39 59.18 49.01Q55.85 59.63 53.15 68.85Q50.45 78.08 50.18 78.80L50.18 78.80Q49.19 81.23 46.40 81.23L46.40 81.23Q45.05 81.23 44.24 80.24L44.24 80.24Q41.36 66.92 33.98 42.17L33.98 42.17L31.46 33.98Q31.28 33.53 31.10 33.53L31.10 33.53Q30.65 33.53 30.47 34.16L30.47 34.16Q30.11 40.01 30.11 57.16Q30.11 74.30 31.37 78.80L31.37 78.80Q31.46 78.98 31.46 79.34L31.46 79.34Q31.46 81.23 28.49 82.08Q25.52 82.94 23.13 82.94Q20.75 82.94 20.75 81.86L20.75 81.86Q20.75 81.77 21.20 80.42L21.20 80.42Q22.55 75.83 22.95 67.10Q23.36 58.37 23.36 47.12Z"></path></svg>